<?xml version="1.0" encoding="utf-8"?>
<!-- Generator: Adobe Illustrator 19.2.1, SVG Export Plug-In . SVG Version: 6.00 Build 0)  -->
<svg version="1.1" id="Layer_1" xmlns="http://www.w3.org/2000/svg" xmlns:xlink="http://www.w3.org/1999/xlink" x="0px" y="0px"
	 viewBox="0 0 331.5 264" style="enable-background:new 0 0 331.5 264;" xml:space="preserve">
<style type="text/css">
	.st0{fill:#E8A207;}
	.st1{fill:#F9D006;}
</style>
<path class="st0" d="M16.9,256.7h274.2c6.6,0,13-5.4,13-12l3.8-196c0-6.6-5.4-12-12-12h-149h-130c-6.6,0-12,5.4-12,12v196
	C4.9,251.3,10.3,256.7,16.9,256.7z"/>
<path class="st0" d="M116.9,7.4l30,30h-130l-12,12.5c0,0-0.5-42.5,25-42.5H116.9z"/>
<g>
	<path class="st1" d="M59.8,86.6c85.4,0,170.9,0,256.3,0c8.6,0,13.6,5.4,12,12c-13.6,47.5-16.2,97.4-24,146.1
		c-0.9,6.6-6.1,12-12.5,12c-82.5,0-165,0-247.5,0c-9,0-22.7,2-26.6-4.4C31,201.1,39.7,150.8,47.7,98.5
		C48.2,91.9,53.5,86.6,59.8,86.6z"/>
</g>
<path class="st1" d="M28.1,256.7"/>
<path class="st1" d="M17.6,251.9"/>
<path class="st1" d="M18,250.4l12.1,6.5c-11.6,0.1-14.8-0.2-14.8-0.2"/>
<path class="st0" d="M10.8,43.7"/>
</svg>
